#!OML:ASF E:\emotionWalksFemale\Project 1\Capture day 1\Session 1\Female1.ASF
:FULLY-SPECIFIED
:DEGREES
271
root 8.43535 15.5188 23.2116 -175.064 3.76389 -179.685
lowerback 8.97567 0.89746 1.07896
upperback -3.27552 1.33628 -0.230154
thorax -8.48554 0.592375 -1.0679
lowerneck -7.4651 -2.02566 -5.51894
upperneck 4.4962 -2.52152 6.39957
head 2.98161 -1.11471 2.99436
rclavicle 3.4251e-015 3.07961e-015
rhumerus -44.2969 13.7101 -91.0728
rradius 32.2485
rwrist 26.8949
rhand -5.67997 -53.164
rfingers 7.12502
rthumb -159.86 -262.14
lclavicle 3.4251e-015 3.07961e-015
lhumerus -41.0341 -1.23894 81.9344
lradius 31.8413
lwrist -14.8793
lhand -0.507077 -36.4902
lfingers 7.12502
lthumb 25.1046 -8.12051
rfemur -8.96834 13.3299 24.8324
rtibia 21.0626
rfoot -16.7301 -24.8124
rtoes -0.751499
lfemur -13.0542 -13.3753 -23.4104
ltibia 25.3403
lfoot -21.4323 15.2709
ltoes -22.5837
272
root 8.4361 15.5095 23.215 -175.053 3.7919 -179.614
lowerback 9.13836 0.891766 1.09441
upperback -3.27916 1.3373 -0.163314
thorax -8.58568 0.592705 -1.00945
lowerneck -7.33887 -1.99962 -5.59642
upperneck 4.38544 -2.48412 6.47248
head 2.92098 -1.09716 3.03484
rclavicle 1.13296e-014 -3.24267e-015
rhumerus -44.3682 13.6444 -91.0429
rradius 32.3634
rwrist 26.8914
rhand -5.8103 -53.3783
rfingers 7.12502
rthumb -159.985 -262.367
lclavicle 1.13296e-014 -3.24267e-015
lhumerus -40.9544 -1.18295 82.1519
lradius 31.6798
lwrist -14.9711
lhand -1.34548 -36.6668
lfingers 7.12502
lthumb 24.301 -8.18712
rfemur -9.19742 13.2009 24.9044
rtibia 21.4065
rfoot -16.8194 -24.6395
rtoes -1.12886
lfemur -13.3464 -12.966 -23.3262
ltibia 25.8074
lfoot -21.5573 15.0199
ltoes -23.2792
273
root 8.43655 15.4962 23.2193 -175.046 3.76346 -179.547
lowerback 9.13582 0.856971 1.16739
upperback -3.18445 1.30014 -0.121402
thorax -8.48195 0.572437 -0.998578
lowerneck -7.28276 -1.95832 -5.53998
upperneck 4.23114 -2.42797 6.42816
head 2.85129 -1.07106 3.00942
rclavicle -8.38623e-016 4.8081e-015
rhumerus -44.2867 13.6826 -91.0755
rradius 32.4138
rwrist 26.7725
rhand -5.7421 -53.9079
rfingers 7.12502
rthumb -159.92 -262.89
lclavicle -8.38623e-016 4.8081e-015
lhumerus -40.7587 -1.05491 82.3145
lradius 31.6132
lwrist -15.0422
lhand -1.60432 -36.6395
lfingers 7.12502
lthumb 24.0529 -8.12678
rfemur -9.41862 12.9886 24.984
rtibia 21.7688
rfoot -16.9191 -24.4727
rtoes -1.49373
lfemur -13.6423 -12.5884 -23.2453
ltibia 26.3081
lfoot -21.6803 14.7534
ltoes -24.4147
274
root 8.43656 15.4846 23.2227 -175.001 3.76692 -179.47
lowerback 9.04534 0.859392 1.29728
upperback -3.05652 1.31558 -0.109455
thorax -8.28811 0.574997 -1.05776
lowerneck -7.37402 -1.94264 -5.43112
upperneck 4.17269 -2.40485 6.30547
head 2.84134 -1.06087 2.94668
rclavicle 1.81795e-014 4.32357e-015
rhumerus -44.0597 13.6598 -91.0847
rradius 32.3356
rwrist 26.5445
rhand -5.4478 -54.0927
rfingers 7.12502
rthumb -159.637 -263.045
lclavicle 1.81795e-014 4.32357e-015
lhumerus -40.6055 -0.926949 82.4453
lradius 31.6678
lwrist -15.2546
lhand -1.3381 -36.7193
lfingers 7.12502
lthumb 24.3081 -8.24056
rfemur -9.7116 12.7356 25.0677
rtibia 22.1567
rfoot -16.8485 -24.4118
rtoes -2.11025
lfemur -14.0009 -12.1635 -23.1564
ltibia 26.8454
lfoot -21.7942 14.5015
ltoes -25.4155
275
root 8.43659 15.4761 23.2241 -174.971 3.82755 -179.379
lowerback 9.13233 0.886191 1.41824
upperback -3.01576 1.36736 -0.0959232
thorax -8.29106 0.593936 -1.12099
lowerneck -7.43474 -1.9637 -5.32194
upperneck 4.16904 -2.43371 6.15544
head 2.84701 -1.07812 2.8725
rclavicle -8.81641e-015 -3.90115e-015
rhumerus -43.9221 13.6295 -91.1362
rradius 32.2103
rwrist 26.2865
rhand -5.58203 -53.929
rfingers 7.12502
rthumb -159.766 -262.895
lclavicle -8.81641e-015 -3.90115e-015
lhumerus -40.5048 -0.727439 82.5632
lradius 31.5631
lwrist -15.5711
lhand -1.34146 -36.7202
lfingers 7.12502
lthumb 24.3049 -8.241
rfemur -9.99833 12.5466 25.1625
rtibia 22.593
rfoot -16.8161 -24.3166
rtoes -2.60029
lfemur -14.3402 -11.7139 -23.0709
ltibia 27.3938
lfoot -21.9346 14.3105
ltoes -26.0114
276
root 8.43647 15.4661 23.2263 -174.911 3.82225 -179.306
lowerback 9.40019 0.877563 1.49002
upperback -3.10293 1.37376 -0.0656687
thorax -8.5404 0.591097 -1.13739
lowerneck -7.37337 -1.99256 -5.20128
upperneck 4.11939 -2.47762 6.00701
head 2.81454 -1.10446 2.79537
rclavicle 9.17826e-016 -4.84538e-015
rhumerus -43.9895 13.519 -91.1576
rradius 32.1971
rwrist 26.4886
rhand -6.6175 -53.5033
rfingers 7.12502
rthumb -160.761 -262.572
lclavicle 9.17826e-016 -4.84538e-015
lhumerus -40.5147 -0.536554 82.6787
lradius 31.4127
lwrist -15.876
lhand -1.59239 -36.675
lfingers 7.12502
lthumb 24.0643 -8.16386
rfemur -10.3107 12.3726 25.2263
rtibia 23.0676
rfoot -17.038 -24.1383
rtoes -2.13063
lfemur -14.6963 -11.3399 -22.9865
ltibia 27.925
lfoot -22.2512 13.9075
ltoes -25.551
